<svg xmlns="http://www.w3.org/2000/svg" xmlns:xlink="http://www.w3.org/1999/xlink"
     width="512" height="512" viewBox="0 0 512 512"
     role="img" aria-labelledby="title desc">
  <title id="title">液态玻璃播放图标</title>
  <desc id="desc">紫蓝色播放符号嵌在 Apple 风格连续圆角的半透明玻璃图标中。</desc>

  <defs>
    <!-- Apple-style continuous-corner icon silhouette -->
    <path id="squircle" d="
      M170 0 L342 0
      C407 0 440 5 475 37
      C507 72 512 105 512 170
      L512 342
      C512 407 507 440 475 475
      C440 507 407 512 342 512
      L170 512
      C105 512 72 507 37 475
      C5 440 0 407 0 342
      L0 170
      C0 105 5 72 37 37
      C72 5 105 0 170 0 Z"/>

    <linearGradient id="glassFill" x1="0" y1="0" x2="1" y2="1">
      <stop offset="0" stop-color="#ffffff"/>
      <stop offset=".42" stop-color="#f7f6ff"/>
      <stop offset="1" stop-color="#ebe9ff"/>
    </linearGradient>

    <linearGradient id="rim" x1=".08" y1=".02" x2=".92" y2=".98">
      <stop offset="0" stop-color="#ffffff" stop-opacity=".88"/>
      <stop offset=".28" stop-color="#d9d4ff" stop-opacity=".40"/>
      <stop offset=".62" stop-color="#ffffff" stop-opacity=".28"/>
      <stop offset="1" stop-color="#c8c2ff" stop-opacity=".38"/>
    </linearGradient>

    <radialGradient id="glassBloom" cx="32%" cy="18%" r="88%">
      <stop offset="0" stop-color="#ffffff" stop-opacity=".72"/>
      <stop offset=".36" stop-color="#ffffff" stop-opacity=".10"/>
      <stop offset="1" stop-color="#a397ff" stop-opacity=".16"/>
    </radialGradient>

    <linearGradient id="playFill" x1="0" y1="0" x2="1" y2="1">
      <stop offset="0" stop-color="#9d88ff"/>
      <stop offset=".28" stop-color="#7b63f7"/>
      <stop offset=".68" stop-color="#4a45dc"/>
      <stop offset="1" stop-color="#7569ff"/>
    </linearGradient>

    <linearGradient id="playSheen" x1="0" y1="0" x2="1" y2="1">
      <stop offset="0" stop-color="#ffffff" stop-opacity=".66"/>
      <stop offset=".42" stop-color="#eeeaff" stop-opacity=".54"/>
      <stop offset="1" stop-color="#b8afff" stop-opacity=".34"/>
    </linearGradient>

    <radialGradient id="playGlow" cx="50%" cy="50%" r="50%">
      <stop offset="0" stop-color="#7d63ff" stop-opacity=".55"/>
      <stop offset="1" stop-color="#7d63ff" stop-opacity="0"/>
    </radialGradient>

    <clipPath id="iconClip">
      <use href="#squircle" xlink:href="#squircle"/>
    </clipPath>

    <filter id="blur8" x="-30%" y="-30%" width="160%" height="160%" color-interpolation-filters="sRGB">
      <feGaussianBlur stdDeviation="8"/>
    </filter>
    <filter id="blur18" x="-40%" y="-40%" width="180%" height="180%" color-interpolation-filters="sRGB">
      <feGaussianBlur stdDeviation="18"/>
    </filter>
    <filter id="blur26" x="-40%" y="-40%" width="180%" height="180%" color-interpolation-filters="sRGB">
      <feGaussianBlur stdDeviation="26"/>
    </filter>
    <filter id="playBlur" x="-45%" y="-45%" width="190%" height="190%" color-interpolation-filters="sRGB">
      <feGaussianBlur stdDeviation="2.6"/>
    </filter>
  </defs>

  <!-- The translucent rim keeps the icon lightweight on both white and colored pages. -->
  <use href="#squircle" xlink:href="#squircle" fill="url(#glassFill)"/>
  <use href="#squircle" xlink:href="#squircle" fill="none" stroke="url(#rim)" stroke-width="2.5"/>

  <g clip-path="url(#iconClip)">
    <!-- Translucent internal bloom and refraction tint -->
    <ellipse cx="192" cy="120" rx="246" ry="178" fill="url(#glassBloom)"/>
    <ellipse cx="403" cy="374" rx="180" ry="142" fill="#b9b1ff" opacity=".09" filter="url(#blur18)"/>

    <!-- Specular arcs emphasize the continuous glass edge. -->
    <path d="M106 196 C112 123 145 96 236 94" fill="none" stroke="#ffffff" stroke-opacity=".88" stroke-width="7" stroke-linecap="round" filter="url(#blur8)" opacity=".48"/>
    <path d="M116 190 C123 128 151 105 231 101" fill="none" stroke="#ffffff" stroke-opacity=".72" stroke-width="3" stroke-linecap="round"/>
    <path d="M399 318 C393 376 368 403 303 414" fill="none" stroke="#b4aaff" stroke-opacity=".28" stroke-width="5" stroke-linecap="round" filter="url(#blur8)"/>

    <!-- Fine inner border creates the pressed-glass lip. -->
    <use href="#squircle" xlink:href="#squircle" transform="translate(256 256) scale(.965) translate(-256 -256)"
         fill="none" stroke="#ffffff" stroke-opacity=".52" stroke-width="3"/>
  </g>

  <!-- Liquid glass play symbol: paths taken from the supplied 48 × 48 web SVG. -->
  <g transform="translate(256 256) scale(7.2) translate(-24 -24)">
    <path class="app-logo-mark-triangle"
          d="M15.4 9.8c-2.2-1.4-5.1.2-5.1 2.8v22.8c0 2.6 2.9 4.2 5.1 2.8l20-11.4a3.2 3.2 0 0 0 0-5.6l-20-11.4Z"
          transform="translate(0 2.3)" fill="#4536bb" opacity=".28" filter="url(#playBlur)"/>
    <path class="app-logo-mark-triangle"
          d="M15.4 9.8c-2.2-1.4-5.1.2-5.1 2.8v22.8c0 2.6 2.9 4.2 5.1 2.8l20-11.4a3.2 3.2 0 0 0 0-5.6l-20-11.4Z"
          fill="url(#playFill)" stroke="#ffffff" stroke-opacity=".26" stroke-width=".55"/>
    <path class="app-logo-mark-highlight"
          d="M14.3 13.2c-.7-.4-1.5.1-1.5.9v7.4c4.8-3.1 10.2-5.1 16-5.8l-14.5-2.5Z"
          fill="url(#playSheen)" opacity="1"/>
  </g>
</svg>
